# xmcd
# 
# Track frame offsets:
#     150
#     22767
#     42955
#     71465
#     91600
#     112530
#     131370
#     153737
#     171310
#     192917
#     215147
#     235190
# 
# Disc length: 3212
# 
# Revision: 6
# Processed by: cddbd v1.5.2PL0 Copyright (c) Steve Scherf et al.
# Submitted via: BonkEnc v1.0.8
# 
DISCID=930c8a0c
DTITLE=Toni Braxton - Toni Braxton
DYEAR=1993
DGENRE=R&B
TTITLE0=Another Sad Love Song
TTITLE1=Breathe Again
TTITLE2=Seven Whole Days
TTITLE3=Love Affair
TTITLE4=Candlelight
TTITLE5=Spending My Time With You
TTITLE6=Love Shoulda Brought You Home
TTITLE7=I Belong To You
TTITLE8=How Many Ways
TTITLE9=You Mean The World To Me
TTITLE10=Best Friend
TTITLE11=Breathe Again (Reprise)
EXTD=YEAR: 1993
EXTT0=
EXTT1=
EXTT2=
EXTT3=
EXTT4=
EXTT5=
EXTT6=
EXTT7=
EXTT8=
EXTT9=
EXTT10=
EXTT11=
PLAYORDER=
